<?xml version="1.0" encoding="UTF-8"?>
<svg id="Layer_1" data-name="Layer 1" xmlns="http://www.w3.org/2000/svg" viewBox="0 0 400 400">
  <path d="m96.29,163.63c6.79,0,12.29-5.51,12.29-12.29s-5.5-12.29-12.29-12.29-12.29,5.51-12.29,12.29,5.5,12.29,12.29,12.29Z"/>
  <path d="m127.41,77v227.61h144.34V77H127.41Zm30.61,86.63c-6.79,0-12.29-5.51-12.29-12.29s5.5-12.29,12.29-12.29,12.29,5.51,12.29,12.29-5.5,12.29-12.29,12.29Zm61.21,121.58c-6.79,0-12.29-5.51-12.29-12.29s5.5-12.29,12.29-12.29,12.29,5.51,12.29,12.29-5.5,12.29-12.29,12.29Zm0-60.6c-6.79,0-12.29-5.51-12.29-12.29s5.5-12.29,12.29-12.29,12.29,5.51,12.29,12.29-5.5,12.29-12.29,12.29Zm0-60.98c-6.79,0-12.29-5.51-12.29-12.29s5.5-12.29,12.29-12.29,12.29,5.51,12.29,12.29-5.5,12.29-12.29,12.29Z"/>
  <path d="m220.13,346.62c6.79,0,12.29-5.51,12.29-12.29s-5.5-12.29-12.29-12.29-12.29,5.51-12.29,12.29,5.5,12.29,12.29,12.29Z"/>
</svg>